<svg xmlns:xlink="http://www.w3.org/1999/xlink" id="svg" version="1.1" xmlns="http://www.w3.org/2000/svg" width="400"
     height="229.1983122362869" viewBox="0, 0, 400,229.1983122362869">
    <g id="svgg">
        <path id="path0"
              d="M6.618 6.844 C 42.719 43.635,66.883 85.793,71.914 120.763 C 72.262 123.181,72.411 123.569,73.035 123.688 C 123.279 133.233,170.612 171.518,197.329 224.219 C 198.717 226.958,199.923 229.198,200.009 229.198 C 200.094 229.198,201.300 226.932,202.687 224.161 C 228.743 172.136,278.096 132.224,326.924 123.690 C 327.522 123.586,327.695 123.005,328.364 118.841 C 333.958 84.039,358.082 42.575,393.726 6.498 C 397.257 2.924,399.945 -0.000,399.700 -0.000 C 397.744 -0.000,288.608 37.663,288.608 38.338 C 288.608 47.457,269.013 84.994,254.442 103.789 C 235.326 128.445,226.517 124.473,223.398 89.789 C 222.910 84.364,222.772 55.750,223.220 52.743 C 223.393 51.577,223.364 50.970,223.134 50.970 C 222.926 50.970,222.785 51.940,222.785 53.365 C 222.785 70.012,206.955 90.853,197.143 87.124 C 187.659 83.521,177.346 66.426,177.191 54.056 C 177.178 53.009,177.032 51.848,176.866 51.477 C 176.684 51.068,176.660 52.201,176.806 54.346 C 177.592 65.932,176.912 89.150,175.498 99.020 C 172.178 122.176,165.468 125.460,151.504 110.763 C 137.288 95.800,116.615 59.437,112.064 41.386 C 111.554 39.364,110.928 37.596,110.674 37.456 C 109.953 37.061,0.739 0.000,0.296 -0.000 C 0.080 -0.000,2.925 3.080,6.618 6.844 "
              stroke="none" fill="#fff" fill-rule="evenodd"></path>
    </g>
</svg>